<svg width="1200" height="630" viewBox="0 0 1200 630" xmlns="http://www.w3.org/2000/svg">
  <defs>
    <linearGradient id="bg" x1="0%" y1="0%" x2="100%" y2="100%">
      <stop offset="0%" style="stop-color:#ffffff;stop-opacity:1" />
      <stop offset="100%" style="stop-color:#fafafa;stop-opacity:1" />
    </linearGradient>
  </defs>
  
  <!-- Background -->
  <rect width="1200" height="630" fill="url(#bg)"/>
  
  <!-- Grid pattern -->
  <defs>
    <pattern id="grid" width="40" height="40" patternUnits="userSpaceOnUse">
      <path d="M 40 0 L 0 0 0 40" fill="none" stroke="#f0f0f0" stroke-width="1"/>
    </pattern>
  </defs>
  <rect width="1200" height="630" fill="url(#grid)" opacity="0.3"/>
  
  <!-- Main content area -->
  <rect x="100" y="100" width="1000" height="430" fill="#ffffff" stroke="#e5e5e5" stroke-width="2" rx="12"/>
  
  <!-- Title -->
  <text x="600" y="220" font-family="Inter, sans-serif" font-size="64" font-weight="600" text-anchor="middle" fill="#1a1a1a">
    KOMPOSER
  </text>
  
  <!-- Subtitle -->
  <text x="600" y="270" font-family="Inter, sans-serif" font-size="28" font-weight="400" text-anchor="middle" fill="#666666">
    A KONTEXT experiment
  </text>
  
  <!-- Description -->
  <text x="600" y="320" font-family="Inter, sans-serif" font-size="20" font-weight="400" text-anchor="middle" fill="#999999">
    Upload image → AI creates wild prompts → See magic happen
  </text>
  
  <!-- Visual elements - abstract representation of image transformation -->
  <g transform="translate(200, 350)">
    <!-- Input image representation -->
    <rect x="0" y="0" width="120" height="120" fill="#f0f0f0" stroke="#e5e5e5" stroke-width="2" rx="8"/>
    <circle cx="30" cy="30" r="8" fill="#ff6b35"/>
    <rect x="20" y="50" width="80" height="8" fill="#e5e5e5" rx="4"/>
    <rect x="20" y="70" width="60" height="8" fill="#e5e5e5" rx="4"/>
    <rect x="20" y="90" width="90" height="8" fill="#e5e5e5" rx="4"/>
  </g>
  
  <!-- Arrow -->
  <g transform="translate(400, 400)">
    <path d="M 0 10 L 100 10 L 90 0 L 100 10 L 90 20" stroke="#ff6b35" stroke-width="3" fill="none" stroke-linecap="round"/>
    <text x="50" y="35" font-family="Inter, sans-serif" font-size="14" font-weight="500" text-anchor="middle" fill="#ff6b35">AI</text>
  </g>
  
  <!-- Output images representation -->
  <g transform="translate(600, 350)">
    <rect x="0" y="0" width="50" height="50" fill="#f8f8f8" stroke="#e5e5e5" stroke-width="1" rx="4"/>
    <rect x="60" y="0" width="50" height="50" fill="#f8f8f8" stroke="#e5e5e5" stroke-width="1" rx="4"/>
    <rect x="0" y="60" width="50" height="50" fill="#f8f8f8" stroke="#e5e5e5" stroke-width="1" rx="4"/>
    <rect x="60" y="60" width="50" height="50" fill="#f8f8f8" stroke="#e5e5e5" stroke-width="1" rx="4"/>
    
    <!-- Add some visual interest to output tiles -->
    <circle cx="25" cy="25" r="6" fill="#ff6b35" opacity="0.7"/>
    <circle cx="85" cy="25" r="6" fill="#10b981" opacity="0.7"/>
    <circle cx="25" cy="85" r="6" fill="#f59e0b" opacity="0.7"/>
    <circle cx="85" cy="85" r="6" fill="#ef4444" opacity="0.7"/>
  </g>
  
  <!-- Footer -->
  <text x="600" y="580" font-family="Inter, sans-serif" font-size="16" font-weight="400" text-anchor="middle" fill="#999999">
    "The stimulus is to trigger the imagination" - Rick Rubin
  </text>
</svg>